<svg width="35" height="35" viewBox="0 0 35 35" xmlns="http://www.w3.org/2000/svg"><title>766B863D-7636-4B24-B0B9-56E23806DEAB</title><path d="M26.566 18.19c-.437 1.028-2.556 4.147-3.032 5a15.26 15.26 0 0 1-1.464 2.206c-.5.616-1.008 1.098-1.522 1.444-.514.347-1.027.52-1.541.52-.18 0-.337-.138-.472-.414-.135-.276-.248-.648-.337-1.117a17.166 17.166 0 0 1-.222-1.637 42.23 42.23 0 0 1-.134-1.974 72.426 72.426 0 0 1-.068-2.138c-.013-.732-.02-1.444-.02-2.138l-.558-.096a26.93 26.93 0 0 1-1.32 3.842c-.507 1.162-1.05 2.164-1.628 3.005-.578.841-1.175 1.496-1.791 1.964-.617.469-1.221.703-1.812.703-1.001 0-1.737-.738-2.206-2.215-.435-1.37-.661-5.522-.692-8.11-1.125.41-1.415.415-2.814.446-2.792.06-3.336-3.5-.34-3.885 2.742-.351 3.48-1.6 4.765-3.469.222-.323.332-.576.738-.929.547-.475 3.552-.248 3.44.925l-1.35 10.42.251-.02a97.762 97.762 0 0 0 1.474-3.592c.417-1.085.803-2.057 1.156-2.918a30.65 30.65 0 0 1 1.021-2.253s.46-1.036.886-1.817c.891-1.632 5.152-1.072 4.961.18l-1.58 10.42.27-.02 4.6-10.413c.936-1.66 5.288-1.21 5.284.379 0 .36-.061.745-.183 1.155-.122.411-.254.793-.395 1.146-.141.354-.962 1.702-.962 1.702.227 3.252 3.774 3.634 6.031 2.595C34.78 7.614 27.035 0 17.505 0 7.837 0 0 7.835 0 17.5c0 9.663 7.837 17.498 17.505 17.498 8.397 0 15.41-5.91 17.11-13.797-3.963 1.361-7.383-.206-8.049-3.01" fill="#34C6D9" fill-rule="evenodd"/></svg>